<?xml version="1.0" standalone="no"?><!DOCTYPE svg PUBLIC "-//W3C//DTD SVG 1.1//EN" "http://www.w3.org/Graphics/SVG/1.1/DTD/svg11.dtd"><svg class="icon" height="512" viewBox="0 0 1024 1024" version="1.1" xmlns="http://www.w3.org/2000/svg"><path d="M858.389175 793.735196q-10.303678 3.423893-24.063248 5.727821-1.151964 0-2.303928 0.575982t-3.423893 0.575982q-12.607606 2.303928-22.911284 2.303928t-22.911284-1.151964l-4.575857 0-21.75932-3.423893q-1.151964 1.151964-14.303553 20.607356t-17.183463 25.183213-17.183463 23.487266-21.183338 26.911159-20.031374 22.335302-24.63923 23.487266l-320.693978 0q-49.246461-25.183213-87.03728-69.853817t-58.398175-88.765226-34.366926-97.372957-18.335427-85.341333-6.879785-63.006031l0-22.911284q0-22.911284 16.607481-42.942658t38.366801-20.031374l617.356708 0q10.303678 0 19.487391 5.151839t16.031499 12.607606 11.455642 16.607481 6.879785 18.335427q11.455642 1.151964 24.063248 3.423893l2.303928 0q22.911284 3.423893 43.51864 13.75957 2.303928 0 3.423893 1.151964l9.151714 4.575857q2.303928 1.151964 4.575857 2.847911t4.575857 2.847911q4.575857 3.423893 8.575732 6.303803t7.455767 7.455767q1.151964 0 1.151964 1.151964l2.303928 1.151964q3.423893 3.423893 6.879785 7.455767t6.879785 7.455767l0 0q3.423893 4.575857 5.727821 8.575732t4.575857 8.575732l2.303928 4.575857q5.727821 10.303678 8.031749 18.335427 17.183463 59.550139-20.607356 115.100403t-108.7966 76.15762zM287.975001 513.135965l-90.493172 0q1.151964 1.151964-0.575982 15.455517t1.727946 42.366676 7.455767 60.702103 16.031499 69.853817 28.063123 71.005781 44.094622 64.701978 63.582013 49.246461q-37.790819-73.309709-58.398175-139.739633t-24.63923-105.372707-0.575982-72.157745 7.455767-42.366676 6.303803-13.75957zM921.363207 621.932565q-4.575857-16.031499-16.031499-29.215087t-28.063123-20.607356-34.942908-9.727696q-2.303928 37.790819-14.879535 85.341333t-40.094747 95.645011q6.879785 1.151964 9.151714 1.151964l1.151964 1.151964 2.303928 0q8.031749 0 18.335427-1.151964l4.575857 0 0-1.151964q11.455642-1.151964 19.487391-3.423893 43.51864-12.607606 67.005906-46.974532t12.031624-71.005781zM531.935377 418.066935q24.063248-32.062998 36.638855-59.550139t13.183588-47.518515-3.423893-36.062873-14.879535-28.639105-20.607356-20.607356-21.75932-16.607481-16.607481-12.031624q-10.303678-11.455642-16.607481-39.518765t-3.423893-60.702103 28.639105-61.278085 71.581763-35.51889q-24.063248 24.063248-31.487016 47.518515t-1.727946 43.51864 17.759445 40.670729 26.911159 40.670729 27.487141 40.670729 16.607481 43.51864-2.847911 46.974532-33.214962 53.822318-72.157745 60.702103zM393.347708 418.066935q22.911284-29.791069 32.63898-55.550264t8.575732-42.366676-9.151714-31.487016-17.183463-22.335302-21.75932-16.031499-16.031499-12.031624q-9.151714-9.151714-13.75957-32.062998t-2.303928-49.822443 22.911284-49.822443 58.398175-29.791069q-20.607356 21.75932-26.335177 43.51864t2.303928 39.518765 19.487391 37.214837 25.759195 37.214837 21.183338 38.366801 3.999875 41.822693-24.63923 48.094497-64.157995 55.550264zM848.085497 1023.968001l-758.248305 0q-21.75932 0-35.51889-6.303803t-19.487391-14.303553-8.031749-18.911409-1.727946-14.879535 0.575982-6.303803l878.500547 0 0 2.303928q0 2.303928-0.575982 5.727821t-0.575982 8.031749-2.303928 9.151714l-4.575857 11.455642q-2.303928 4.575857-6.879785 9.151714t-9.727696 8.031749-13.183588 5.151839-18.335427 1.727946z" /></svg>